<svg width="53" height="34" viewBox="0 0 53 34" fill="none" xmlns="http://www.w3.org/2000/svg">
<g clip-path="url(#clip0)">
<path d="M19.486 32.7057C20.9185 32.407 22.1533 31.8594 23.2153 31.0381C24.1538 30.3411 24.9194 29.47 25.5368 28.4246C26.5247 26.8565 26.9939 25.0893 26.9939 23.123C26.9939 21.2313 26.5741 19.5886 25.7097 18.2694C24.8453 16.9253 23.5857 15.9546 21.9063 15.3324C23.0177 14.7599 23.8574 14.1376 24.4254 13.4407C25.438 12.2211 25.9567 10.5783 25.9567 8.56223C25.9567 6.5959 25.4627 4.90337 24.4501 3.50952C22.7707 1.24451 19.9306 0.0497804 15.9049 0H0V33.1786H14.8183C16.4977 33.1786 18.0536 33.0293 19.486 32.7057ZM6.56943 5.74963H13.7316C15.3122 5.74963 16.5965 5.92386 17.609 6.27233C18.7945 6.77013 19.3872 7.79063 19.3872 9.33382C19.3872 10.7277 18.9427 11.6984 18.0536 12.246C17.1645 12.7936 16.0037 13.0673 14.5713 13.0673H6.56943V5.74963ZM6.56943 27.4041V18.5681H14.6701C16.0778 18.593 17.1892 18.7672 17.9548 19.1406C19.3625 19.7877 20.0541 20.9575 20.0541 22.6999C20.0541 24.7408 19.3378 26.1098 17.8807 26.8316C17.0904 27.2299 15.979 27.4041 14.5466 27.4041H6.56943V27.4041Z" fill="#222221"/>
<path d="M32.5753 30.9884C35.045 33.0045 37.9099 34.0001 41.1452 34.0001C45.0721 34.0001 48.1345 32.8054 50.3079 30.4159C51.7156 28.9225 52.5059 27.4291 52.6788 25.9855H46.1834C45.813 26.7073 45.3684 27.2549 44.8745 27.678C43.9607 28.4247 42.7999 28.7981 41.3428 28.7981C39.9845 28.7981 38.799 28.4994 37.8358 27.8771C36.2305 26.8815 35.3908 25.1641 35.292 22.7H53.0245C53.0492 20.5843 52.9751 18.9664 52.827 17.8215C52.5306 15.9049 51.8885 14.2124 50.8759 12.7439C49.7645 11.1011 48.3568 9.88151 46.6774 9.10991C44.9733 8.33832 43.0716 7.96497 40.9477 7.96497C37.3913 7.96497 34.477 9.10991 32.2543 11.3749C30.0315 13.6399 28.8955 16.9005 28.8955 21.1568C28.8461 25.6868 30.0809 28.9723 32.5753 30.9884ZM37.1196 14.6853C38.0087 13.7644 39.293 13.2915 40.923 13.2915C42.4295 13.2915 43.689 13.7395 44.7016 14.6106C45.7142 15.4818 46.2822 16.7761 46.4057 18.4935H35.4402C35.6378 16.8757 36.2058 15.6063 37.1196 14.6853Z" fill="#222221"/>
<path d="M47.6409 1.91663H33.3413V5.25191H47.6409V1.91663Z" fill="#222221"/>
</g>
<defs>
<clipPath id="clip0">
<rect width="53" height="34" fill="white"/>
</clipPath>
</defs>
</svg>
