<svg width="44" height="44" viewBox="0 0 44 44" fill="none" xmlns="http://www.w3.org/2000/svg">
<path d="M22 0C9.84831 0 0 9.84831 0 22C0 34.1517 9.84831 44 22 44C34.1517 44 44 34.1517 44 22C44 9.84831 34.1517 0 22 0ZM22 3.82688C26.1715 3.82688 30.0165 5.25969 33.0816 7.63561C30.8689 10.4831 27.8219 12.7321 23.9406 14.3825C22.0725 10.9728 19.9505 7.63561 17.5383 4.40725C18.9711 4.04452 20.4584 3.82688 22 3.82688ZM13.8021 5.80379C16.2506 8.99588 18.4089 12.2968 20.2951 15.6702C15.8335 16.9761 10.5194 17.6472 4.37098 17.7016C5.64056 12.4963 9.14097 8.17972 13.8021 5.80379ZM3.82688 22C3.82688 21.8368 3.84501 21.6917 3.84501 21.5284C10.9002 21.5103 16.9942 20.7123 22.0907 19.0981C22.526 19.9687 22.925 20.8392 23.324 21.7279C17.1212 23.6686 12.0247 27.6406 8.03462 33.6076C5.40478 30.4699 3.82688 26.4254 3.82688 22ZM22 40.1731C17.7923 40.1731 13.9291 38.7222 10.8458 36.31C14.4551 30.6513 19.0618 26.9514 24.7749 25.2646C26.4798 29.7082 27.7312 34.2605 28.5293 38.9398C26.4979 39.7378 24.3034 40.1731 22 40.1731ZM32.0841 37.108C31.2861 32.7914 30.1072 28.5837 28.5655 24.4666C32.0115 23.9769 35.784 24.1039 39.9373 24.8293C39.1393 29.9258 36.2193 34.3512 32.0841 37.108ZM27.0965 20.8392C26.643 19.8054 26.1896 18.7716 25.6818 17.756C29.9077 15.9242 33.3174 13.4394 35.8566 10.2655C38.3232 13.1855 39.8829 16.9035 40.1187 20.9662C35.4031 20.2045 31.0684 20.1682 27.0965 20.8392Z" fill="#222221"/>
</svg>
