<svg width="141" height="58" viewBox="0 0 141 58" fill="none" xmlns="http://www.w3.org/2000/svg">
<g filter="url(#filter0_d)">
<rect x="4" width="133" height="50" rx="10" fill="#F05945"/>
</g>
<path d="M44.2217 32V19.2031H48.7041C50.2568 19.2031 51.4346 19.502 52.2373 20.0996C53.04 20.6914 53.4414 21.5615 53.4414 22.71C53.4414 23.3369 53.2803 23.8906 52.958 24.3711C52.6357 24.8457 52.1875 25.1943 51.6133 25.417C52.2695 25.5811 52.7852 25.9121 53.1602 26.4102C53.541 26.9082 53.7314 27.5176 53.7314 28.2383C53.7314 29.4688 53.3389 30.4004 52.5537 31.0332C51.7686 31.666 50.6494 31.9883 49.1963 32H44.2217ZM46.8584 26.4277V29.8818H49.1172C49.7383 29.8818 50.2217 29.7354 50.5674 29.4424C50.9189 29.1436 51.0947 28.7334 51.0947 28.2119C51.0947 27.04 50.4883 26.4453 49.2754 26.4277H46.8584ZM46.8584 24.5645H48.8096C50.1396 24.541 50.8047 24.0107 50.8047 22.9736C50.8047 22.3936 50.6348 21.9775 50.2949 21.7256C49.9609 21.4678 49.4307 21.3389 48.7041 21.3389H46.8584V24.5645ZM55.1553 27.1572C55.1553 26.2139 55.3369 25.373 55.7002 24.6348C56.0635 23.8965 56.585 23.3252 57.2646 22.9209C57.9502 22.5166 58.7441 22.3145 59.6465 22.3145C60.9297 22.3145 61.9756 22.707 62.7842 23.4922C63.5986 24.2773 64.0527 25.3438 64.1465 26.6914L64.1641 27.3418C64.1641 28.8008 63.7568 29.9727 62.9424 30.8574C62.1279 31.7363 61.0352 32.1758 59.6641 32.1758C58.293 32.1758 57.1973 31.7363 56.377 30.8574C55.5625 29.9785 55.1553 28.7832 55.1553 27.2715V27.1572ZM57.6953 27.3418C57.6953 28.2441 57.8652 28.9355 58.2051 29.416C58.5449 29.8906 59.0312 30.1279 59.6641 30.1279C60.2793 30.1279 60.7598 29.8936 61.1055 29.4248C61.4512 28.9502 61.624 28.1943 61.624 27.1572C61.624 26.2725 61.4512 25.5869 61.1055 25.1006C60.7598 24.6143 60.2734 24.3711 59.6465 24.3711C59.0254 24.3711 58.5449 24.6143 58.2051 25.1006C57.8652 25.5811 57.6953 26.3281 57.6953 27.3418ZM68.7695 20.1523V22.4902H70.3955V24.3535H68.7695V29.0996C68.7695 29.4512 68.8369 29.7031 68.9717 29.8555C69.1064 30.0078 69.3643 30.084 69.7451 30.084C70.0264 30.084 70.2754 30.0635 70.4922 30.0225V31.9473C69.9941 32.0996 69.4814 32.1758 68.9541 32.1758C67.1729 32.1758 66.2646 31.2764 66.2295 29.4775V24.3535H64.8408V22.4902H66.2295V20.1523H68.7695ZM74.8516 20.1523V22.4902H76.4775V24.3535H74.8516V29.0996C74.8516 29.4512 74.9189 29.7031 75.0537 29.8555C75.1885 30.0078 75.4463 30.084 75.8271 30.084C76.1084 30.084 76.3574 30.0635 76.5742 30.0225V31.9473C76.0762 32.0996 75.5635 32.1758 75.0361 32.1758C73.2549 32.1758 72.3467 31.2764 72.3115 29.4775V24.3535H70.9229V22.4902H72.3115V20.1523H74.8516ZM77.2334 27.1572C77.2334 26.2139 77.415 25.373 77.7783 24.6348C78.1416 23.8965 78.6631 23.3252 79.3428 22.9209C80.0283 22.5166 80.8223 22.3145 81.7246 22.3145C83.0078 22.3145 84.0537 22.707 84.8623 23.4922C85.6768 24.2773 86.1309 25.3438 86.2246 26.6914L86.2422 27.3418C86.2422 28.8008 85.835 29.9727 85.0205 30.8574C84.2061 31.7363 83.1133 32.1758 81.7422 32.1758C80.3711 32.1758 79.2754 31.7363 78.4551 30.8574C77.6406 29.9785 77.2334 28.7832 77.2334 27.2715V27.1572ZM79.7734 27.3418C79.7734 28.2441 79.9434 28.9355 80.2832 29.416C80.623 29.8906 81.1094 30.1279 81.7422 30.1279C82.3574 30.1279 82.8379 29.8936 83.1836 29.4248C83.5293 28.9502 83.7021 28.1943 83.7021 27.1572C83.7021 26.2725 83.5293 25.5869 83.1836 25.1006C82.8379 24.6143 82.3516 24.3711 81.7246 24.3711C81.1035 24.3711 80.623 24.6143 80.2832 25.1006C79.9434 25.5811 79.7734 26.3281 79.7734 27.3418ZM90.1445 22.4902L90.2236 23.5889C90.9033 22.7393 91.8145 22.3145 92.957 22.3145C93.9648 22.3145 94.7148 22.6104 95.207 23.2021C95.6992 23.7939 95.9512 24.6787 95.9629 25.8564V32H93.4229V25.918C93.4229 25.3789 93.3057 24.9893 93.0713 24.749C92.8369 24.5029 92.4473 24.3799 91.9023 24.3799C91.1875 24.3799 90.6514 24.6846 90.2939 25.2939V32H87.7539V22.4902H90.1445Z" fill="white"/>
<defs>
<filter id="filter0_d" x="0" y="0" width="141" height="58" filterUnits="userSpaceOnUse" color-interpolation-filters="sRGB">
<feFlood flood-opacity="0" result="BackgroundImageFix"/>
<feColorMatrix in="SourceAlpha" type="matrix" values="0 0 0 0 0 0 0 0 0 0 0 0 0 0 0 0 0 0 127 0"/>
<feOffset dy="4"/>
<feGaussianBlur stdDeviation="2"/>
<feColorMatrix type="matrix" values="0 0 0 0 0 0 0 0 0 0 0 0 0 0 0 0 0 0 0.25 0"/>
<feBlend mode="normal" in2="BackgroundImageFix" result="effect1_dropShadow"/>
<feBlend mode="normal" in="SourceGraphic" in2="effect1_dropShadow" result="shape"/>
</filter>
</defs>
</svg>
